<svg aria-hidden="true" style="position: absolute; width: 0; height: 0; overflow: hidden;" version="1.1" xmlns="http://www.w3.org/2000/svg" xmlns:xlink="http://www.w3.org/1999/xlink">
  <defs>
    <symbol id="icon-mail_svg" viewBox="0 0 32 32">
      <path fill="currentColor" d="M5.333 5.333h21.333c1.467 0 2.667 1.2 2.667 2.667v16c0 1.467-1.2 2.667-2.667 2.667h-21.333c-1.467 0-2.667-1.2-2.667-2.667l0.014-16c0-1.467 1.186-2.667 2.652-2.667zM16 17.333l10.667-6.667v-2.667l-10.667 6.667-10.667-6.667v2.667l10.667 6.667z"></path>
    </symbol>
    <symbol id="icon-phone_svg" viewBox="0 0 32 32">
      <path fill="currentColor" d="M8.827 14.386c1.97 3.797 4.99 6.817 8.676 8.735l0.112 0.053 2.933-2.933c0.24-0.24 0.572-0.388 0.938-0.388 0.15 0 0.295 0.025 0.43 0.071l-0.009-0.003c1.493 0.492 3.108 0.761 4.761 0.761 0.732 0 1.333 0.599 1.333 1.333v4.652c0 0.732-0.601 1.333-1.333 1.333-12.521 0-22.667-10.146-22.667-22.667 0-0.734 0.599-1.333 1.333-1.333h4.667c0.732 0 1.333 0.599 1.333 1.333 0 1.668 0.267 3.268 0.761 4.761 0.040 0.121 0.063 0.261 0.063 0.406 0 0.372-0.152 0.709-0.397 0.952l-2.933 2.933z"></path>
    </symbol>
  </defs>
</svg>
